<svg width="660" height="180" viewBox="0 0 660 180" xmlns="http://www.w3.org/2000/svg">
  <defs>
    <linearGradient id="ringGrad" x1="0%" y1="0%" x2="100%" y2="100%">
      <stop offset="0%" stop-color="#4F46E5"/>
      <stop offset="45%" stop-color="#2563EB"/>
      <stop offset="100%" stop-color="#14B8A6"/>
    </linearGradient>
    <linearGradient id="lensTextGrad" x1="0%" y1="0%" x2="100%" y2="0%">
      <stop offset="0%" stop-color="#2563EB"/>
      <stop offset="100%" stop-color="#14B8A6"/>
    </linearGradient>
  </defs>

  <!-- ============ icon mark, scaled ============ -->
  <g transform="translate(6,6) scale(0.68)">
    <g transform="translate(163,158) rotate(45)">
      <rect x="-14" y="-4" width="82" height="28" rx="14" fill="#0F1B2D"/>
    </g>
    <circle cx="108" cy="103" r="78" fill="none" stroke="url(#ringGrad)" stroke-width="18"/>
    <circle cx="108" cy="103" r="69" fill="#FFFFFF"/>
    <path d="M143,146 L166,146 L149,168 Z" fill="#0F1B2D"/>
    <rect x="58" y="67" width="100" height="72" rx="28" fill="#0F1B2D"/>
    <line x1="108" y1="67" x2="108" y2="46" stroke="#0F1B2D" stroke-width="6" stroke-linecap="round"/>
    <circle cx="108" cy="41" r="8" fill="#0F1B2D"/>
    <circle cx="83" cy="99" r="9" fill="#38BDF8"/>
    <circle cx="133" cy="99" r="9" fill="#38BDF8"/>
    <path d="M83,119 Q108,137 133,119" fill="none" stroke="#38BDF8" stroke-width="6" stroke-linecap="round"/>
  </g>

  <!-- ============ wordmark ============ -->
  <text x="200" y="108" font-family="Arial, Helvetica, sans-serif" font-weight="700" font-size="76">
    <tspan fill="#0F1B2D">News</tspan><tspan fill="url(#lensTextGrad)">Lens</tspan>
  </text>

  <!-- ANALYSER with flanking rules -->
  <line x1="200" y1="138" x2="248" y2="138" stroke="#0F1B2D" stroke-width="3"/>
  <text x="258" y="144" font-family="Arial, Helvetica, sans-serif" font-weight="700" font-size="24" letter-spacing="4" fill="#2B2F3A">ANALYSER</text>
  <line x1="437" y1="138" x2="485" y2="138" stroke="#14B8A6" stroke-width="3"/>
</svg>
